<svg id="svg2046" xmlns="http://www.w3.org/2000/svg" viewBox="0 0 856.34 360.51"><defs><style>.cls-1,.cls-2,.cls-3,.cls-6{fill:none;}.cls-1,.cls-2,.cls-3{stroke:#939598;}.cls-1,.cls-2,.cls-3,.cls-4,.cls-5{stroke-width:3px;}.cls-1{stroke-dasharray:3 3;}.cls-3{stroke-dasharray:2.95 2.95;}.cls-4{fill:#231f20;}.cls-4,.cls-5,.cls-6{stroke:#fff;}.cls-5{fill:#add8e6;}.cls-6{stroke-width:5px;}.cls-7{fill:#fff;}.cls-8{fill:#939598;}</style></defs><title>cipher</title><polyline id="polyline114" class="cls-1" points="383.41 262.54 392.26 280.26 401.12 262.54"/><polyline id="polyline118" class="cls-1" points="312.54 262.54 321.4 280.26 330.26 262.54"/><polyline id="polyline122" class="cls-1" points="241.67 262.54 250.53 280.26 259.39 262.54"/><path id="path112" class="cls-1" d="M179.67,73.6c0,106.3,212.59,141.74,212.59,200.72"/><path id="path116" class="cls-1" d="M108.8,73.6c0,106.3,212.6,141.74,212.6,200.72"/><path id="path120" class="cls-1" d="M37.93,73.6c0,106.3,212.6,141.74,212.6,200.72"/><path id="path100" class="cls-1" d="M463.13,73.6c0,106.3,212.6,141.74,212.6,200.72"/><path id="path104" class="cls-1" d="M604.86,73.6c0,106.3,212.6,141.74,212.6,200.72"/><path id="path108" class="cls-1" d="M534,73.6c0,106.3,212.59,141.74,212.59,200.72"/><g id="rect6"><polyline class="cls-2" points="640.29 287.7 640.29 286.2 641.79 286.2"/><line class="cls-3" x1="644.75" y1="286.2" x2="708.19" y2="286.2"/><polyline class="cls-2" points="709.66 286.2 711.16 286.2 711.16 287.7"/><line class="cls-3" x1="711.16" y1="290.65" x2="711.16" y2="354.09"/><polyline class="cls-2" points="711.16 355.57 711.16 357.07 709.66 357.07"/><line class="cls-3" x1="706.71" y1="357.07" x2="643.27" y2="357.07"/><polyline class="cls-2" points="641.79 357.07 640.29 357.07 640.29 355.57"/><line class="cls-3" x1="640.3" y1="352.62" x2="640.3" y2="289.18"/></g><g id="rect10"><polyline class="cls-2" points="2.5 4.24 2.5 2.74 4 2.74"/><line class="cls-3" x1="6.95" y1="2.74" x2="70.39" y2="2.74"/><polyline class="cls-2" points="71.87 2.74 73.37 2.74 73.37 4.24"/><line class="cls-3" x1="73.37" y1="7.19" x2="73.37" y2="70.63"/><polyline class="cls-2" points="73.37 72.1 73.37 73.6 71.87 73.6"/><line class="cls-3" x1="68.92" y1="73.6" x2="5.48" y2="73.6"/><polyline class="cls-2" points="4 73.6 2.5 73.6 2.5 72.1"/><line class="cls-3" x1="2.5" y1="69.15" x2="2.5" y2="5.71"/></g><g id="rect12"><polyline class="cls-2" points="73.37 4.24 73.37 2.74 74.87 2.74"/><line class="cls-3" x1="77.82" y1="2.74" x2="141.26" y2="2.74"/><polyline class="cls-2" points="142.73 2.74 144.23 2.74 144.23 4.24"/><line class="cls-3" x1="144.23" y1="7.19" x2="144.23" y2="70.63"/><polyline class="cls-2" points="144.23 72.1 144.23 73.6 142.73 73.6"/><line class="cls-3" x1="139.78" y1="73.6" x2="76.34" y2="73.6"/><polyline class="cls-2" points="74.87 73.6 73.37 73.6 73.37 72.1"/><line class="cls-3" x1="73.37" y1="69.15" x2="73.37" y2="5.71"/></g><rect id="rect16" class="cls-1" x="144.23" y="2.74" width="70.87" height="70.87"/><rect id="rect22" class="cls-4" x="215.1" y="2.74" width="70.87" height="70.87"/><rect id="rect26" class="cls-5" x="285.96" y="2.74" width="70.87" height="70.87"/><rect id="rect30" class="cls-4" x="356.83" y="2.74" width="70.87" height="70.87"/><rect id="rect34" class="cls-4" x="427.7" y="2.74" width="70.87" height="70.87"/><rect id="rect38" class="cls-4" x="498.56" y="2.74" width="70.87" height="70.87"/><rect id="rect42" class="cls-4" x="569.43" y="2.74" width="70.87" height="70.87"/><line id="line44" class="cls-1" x1="658.01" y1="38.17" x2="693.44" y2="38.17"/><rect id="rect52" class="cls-4" x="215.1" y="286.2" width="70.87" height="70.87"/><rect id="rect56" class="cls-4" x="285.96" y="286.2" width="70.87" height="70.87"/><rect id="rect60" class="cls-4" x="356.83" y="286.2" width="70.87" height="70.87"/><rect id="rect64" class="cls-4" x="427.7" y="286.2" width="70.87" height="70.87"/><rect id="rect68" class="cls-5" x="498.56" y="286.2" width="70.87" height="70.87"/><rect id="rect72" class="cls-4" x="569.43" y="286.2" width="70.87" height="70.87"/><path id="path76" class="cls-6" d="M250.53,73.6c0,106.3,212.6,141.74,212.6,200.72"/><polyline id="polyline78" class="cls-6" points="454.27 262.54 463.13 280.26 471.99 262.54"/><line id="line80" class="cls-1" x1="161.95" y1="321.64" x2="197.38" y2="321.64"/><g id="rect84"><polyline class="cls-2" points="711.16 287.7 711.16 286.2 712.66 286.2"/><line class="cls-3" x1="715.61" y1="286.2" x2="779.05" y2="286.2"/><polyline class="cls-2" points="780.53 286.2 782.03 286.2 782.03 287.7"/><line class="cls-3" x1="782.03" y1="290.65" x2="782.03" y2="354.09"/><polyline class="cls-2" points="782.03 355.57 782.03 357.07 780.53 357.07"/><line class="cls-3" x1="777.58" y1="357.07" x2="714.14" y2="357.07"/><polyline class="cls-2" points="712.66 357.07 711.16 357.07 711.16 355.57"/><line class="cls-3" x1="711.16" y1="352.62" x2="711.16" y2="289.18"/></g><g id="rect88"><polyline class="cls-2" points="782.03 287.7 782.03 286.2 783.53 286.2"/><line class="cls-3" x1="786.48" y1="286.2" x2="849.92" y2="286.2"/><polyline class="cls-2" points="851.39 286.2 852.89 286.2 852.89 287.7"/><line class="cls-3" x1="852.89" y1="290.65" x2="852.89" y2="354.09"/><polyline class="cls-2" points="852.89 355.57 852.89 357.07 851.39 357.07"/><line class="cls-3" x1="848.44" y1="357.07" x2="785" y2="357.07"/><polyline class="cls-2" points="783.53 357.07 782.03 357.07 782.03 355.57"/><line class="cls-3" x1="782.03" y1="352.62" x2="782.03" y2="289.18"/></g><path id="path92" class="cls-6" d="M321.4,73.6C321.4,179.9,534,215.34,534,274.32"/><polyline id="polyline94" class="cls-6" points="525.14 262.54 534 280.26 542.85 262.54"/><path id="path96" class="cls-6" d="M392.26,73.6c0,106.3,212.6,141.74,212.6,200.72"/><polyline id="polyline98" class="cls-6" points="596 262.54 604.86 280.26 613.72 262.54"/><polyline id="polyline102" class="cls-1" points="666.87 262.54 675.73 280.26 684.59 262.54"/><polyline id="polyline106" class="cls-1" points="808.6 262.54 817.46 280.26 826.32 262.54"/><polyline id="polyline110" class="cls-1" points="737.74 262.54 746.59 280.26 755.45 262.54"/><path id="text1992" class="cls-7" d="M250.53,25.34l-6.42,17.41H257l-6.45-17.41m-2.67-4.67h5.37l13.33,35h-4.92l-3.19-9H242.68l-3.19,9h-5l13.36-35"/><path id="text1996" class="cls-7" d="M321,34.22a4.87,4.87,0,0,0,3.24-.94,3.42,3.42,0,0,0,1.1-2.76,3.41,3.41,0,0,0-1.1-2.74,4.82,4.82,0,0,0-3.24-1h-5v7.4h5m.31,15.31a6.19,6.19,0,0,0,4.07-1.15,4.23,4.23,0,0,0,1.39-3.47,4.17,4.17,0,0,0-1.36-3.4,6.23,6.23,0,0,0-4.1-1.15H316v9.17h5.3m8.39-12.59a8.05,8.05,0,0,1,4.5,3.12,9.47,9.47,0,0,1,1.59,5.58c0,3.37-1.14,5.89-3.42,7.54s-5.75,2.49-10.41,2.49H307v-35h13.54q7.29,0,10.55,2.21t3.28,7.05a7.67,7.67,0,0,1-1.2,4.36,7,7,0,0,1-3.46,2.65"/><path id="text2012" class="cls-7" d="M453.16,24.57V51.78h5.72c4.82,0,8.36-1.1,10.59-3.29s3.37-5.64,3.37-10.35-1.12-8.12-3.37-10.29-5.77-3.28-10.59-3.28h-5.72m-4.74-3.9h9.73q10.17,0,14.93,4.25t4.76,13.22q0,9-4.78,13.28t-14.91,4.25h-9.73v-35"/><path id="text2016" class="cls-7" d="M522.72,20.67h22.13v4H527.46V35h16.66v4H527.46V51.68h17.81v4H522.72v-35"/><path id="text2020" class="cls-7" d="M594.81,20.67h20.11v4H599.54V35h13.88v4H599.54V55.67h-4.73v-35"/><path id="text2048" class="cls-7" d="M406.37,23.35v5A16.4,16.4,0,0,0,401.26,25a15.08,15.08,0,0,0-5.74-1.1q-6,0-9.19,3.68t-3.18,10.59q0,6.91,3.18,10.6t9.19,3.65a14.89,14.89,0,0,0,5.74-1.1A16.4,16.4,0,0,0,406.37,48v5a19.23,19.23,0,0,1-5.27,2.53,20.05,20.05,0,0,1-5.86.84q-8,0-12.52-4.85t-4.57-13.29q0-8.43,4.57-13.29T395.24,20a20.3,20.3,0,0,1,5.91.84,18.43,18.43,0,0,1,5.22,2.49"/><path id="text3041" class="cls-7" d="M250.53,308.8l-6.42,17.42H257l-6.45-17.42m-2.67-4.66h5.37l13.33,35h-4.92l-3.19-9H242.68l-3.19,9h-5l13.36-35"/><path id="text3045" class="cls-7" d="M313.86,322.42v12.82h7.6c2.54,0,4.43-.52,5.64-1.57a6,6,0,0,0,1.86-4.85A5.92,5.92,0,0,0,327.1,324c-1.21-1.05-3.1-1.57-5.64-1.57h-7.6m0-14.39v10.55h7a8.49,8.49,0,0,0,5.16-1.29,5.48,5.48,0,0,0,0-8,8.41,8.41,0,0,0-5.16-1.31h-7m-4.73-3.89h12.09q5.41,0,8.35,2.25a7.6,7.6,0,0,1,2.93,6.4,8,8,0,0,1-1.5,5.11,6.73,6.73,0,0,1-4.41,2.36A9.13,9.13,0,0,1,332,323.4a9,9,0,0,1,1.95,5.93,8.75,8.75,0,0,1-3.19,7.25c-2.12,1.7-5.15,2.55-9.07,2.55H309.13v-35"/><path id="text3049" class="cls-7" d="M453.16,308v27.21h5.72c4.82,0,8.36-1.09,10.59-3.28s3.37-5.64,3.37-10.36-1.12-8.12-3.37-10.29S463.7,308,458.88,308h-5.72m-4.74-3.89h9.73q10.17,0,14.93,4.24t4.76,13.22q0,9-4.78,13.29t-14.91,4.24h-9.73v-35"/><path id="text3053" class="cls-7" d="M521.2,304.14h24.35V311H530.22v6.51h14.42v6.83H530.22v8h15.85v6.82H521.2v-35"/><path id="text3057" class="cls-7" d="M594.81,304.14h20.11v4H599.54v10.32h13.88v4H599.54v16.71h-4.73v-35"/><path id="text3061" class="cls-7" d="M406.37,306.81v5a16.76,16.76,0,0,0-5.11-3.33,15.08,15.08,0,0,0-5.74-1.1q-6,0-9.19,3.68t-3.18,10.6q0,6.92,3.18,10.59t9.19,3.66a15.08,15.08,0,0,0,5.74-1.1,16.76,16.76,0,0,0,5.11-3.33v4.94a19,19,0,0,1-5.27,2.53,19.73,19.73,0,0,1-5.86.85q-8,0-12.52-4.85t-4.57-13.29q0-8.44,4.57-13.29t12.52-4.88a20,20,0,0,1,5.91.85,18.13,18.13,0,0,1,5.22,2.48"/><path id="text3093" class="cls-8" d="M24.55,20.67h5.09l8.69,13,8.74-13h5.09L40.91,37.48l12,18.19H47.82L38,40.78,28.07,55.67H23L35.45,37,24.55,20.67"/><path id="text3097" class="cls-8" d="M94.05,20.67h5.08l9.7,14.4,9.64-14.4h5.08L111.18,39V55.67h-4.76V39L94.05,20.67"/><path id="text3101" class="cls-8" d="M165.92,20.67h27.49v3.61l-22.12,27.4H194v4H165.38V52.06l22.13-27.4H165.92v-4"/><path id="text4875" class="cls-8" d="M686.32,334.12v-9.4h-7.73v-3.89H691v15a20.74,20.74,0,0,1-6,2.95,24.42,24.42,0,0,1-7.05,1q-8.2,0-12.85-4.78t-4.61-13.36q0-8.58,4.61-13.36t12.85-4.81a24.1,24.1,0,0,1,6.49.85,21.1,21.1,0,0,1,5.7,2.48v5a19.23,19.23,0,0,0-5.58-3.35,17.31,17.31,0,0,0-6.21-1.13q-6.42,0-9.66,3.59t-3.21,10.69q0,7.08,3.21,10.66t9.66,3.59a20.8,20.8,0,0,0,4.47-.43,12.35,12.35,0,0,0,3.54-1.35"/><path id="text4879" class="cls-8" d="M733.26,304.14H738v14.34H755.2V304.14h4.73v35H755.2V322.47H738v16.66h-4.73v-35"/><path id="text4883" class="cls-8" d="M815.09,304.14h4.74v35h-4.74v-35"/></svg>